<?xml version="1.0" encoding="UTF-8" standalone="no"?>
<svg width="80px" height="54px" viewBox="0 0 80 54" version="1.1" xmlns="http://www.w3.org/2000/svg" xmlns:xlink="http://www.w3.org/1999/xlink">
    <!-- Generator: Sketch 43.1 (39012) - http://www.bohemiancoding.com/sketch -->
    <title>Group 3</title>
    <desc>Created with Sketch.</desc>
    <defs></defs>
    <g id="Symbols" stroke="none" stroke-width="1" fill="none" fill-rule="evenodd">
        <g id="Menu" transform="translate(-167.000000, -50.000000)" fill-rule="nonzero" fill="#FFFFFF">
            <g transform="translate(22.000000, 50.000000)" id="Group-3">
                <g transform="translate(185.000000, 27.000000) scale(1, -1) translate(-185.000000, -27.000000) translate(145.000000, 0.000000)">
                    <path d="M73.7953044,0.71181177 C70.0886901,0.71181177 67.8902443,2.59771568 67.7220255,5.31410938 L71.2662217,5.31410938 C71.2662217,4.40864481 71.7708781,3.20328115 73.9635232,3.12830638 C75.4832931,3.12830638 76.3243871,4.03377094 76.3243871,4.71431119 C76.1561683,5.7697253 74.8046172,5.84470008 73.4588668,6.07539169 C71.9390969,6.29454872 70.7615653,6.6002151 69.9146706,6.97508896 C68.737139,7.58065444 68.0584631,8.86676016 68.0584631,10.2220734 C68.0584631,12.638568 70.0886901,14.5244719 73.6270856,14.5244719 C77.003063,14.5244719 79.1957081,12.7885175 79.3581262,10.1470986 L75.9879495,10.1470986 C75.9879495,10.8218715 75.8197307,11.9580277 73.7953044,11.9580277 C72.4437533,11.9580277 71.6026593,11.7331034 71.4344405,10.7526641 C71.4344405,9.39158357 74.2999608,9.46655834 76.4926059,8.94173493 C78.5170322,8.41114423 79.8685833,7.1308058 79.8685833,5.31410938 C79.8685833,1.9921502 77.1712818,0.71181177 73.7953044,0.71181177" id="Shape"></path>
                    <polyline id="Shape" points="9.21124674 22.9994661 20.8473475 29.7183592 27.0888452 19.0719415 11.4038918 19.0719415"></polyline>
                    <path d="M33.65,1 L33.65,14.4377862" id="Shape" stroke="#FFFFFF" stroke-width="3.4"></path>
                    <path d="M3.81048109,7.63256005 C3.81048109,5.52173182 5.66668859,3.78577746 7.68531424,3.78577746 C9.88376,3.78577746 11.565948,5.52173182 11.565948,7.63256005 C11.565948,9.6684135 9.88376,11.4793426 7.68531424,11.4793426 C5.66668859,11.4793426 3.81048109,9.6684135 3.81048109,7.63256005 M7.51709544,0.688742609 C3.81048109,0.688742609 0.608523157,3.78577746 0.608523157,7.63256005 C0.608523157,11.4793426 3.81048109,14.5014027 7.51709544,14.5014027 C9.03686533,14.5014027 10.3884164,14.1207616 11.565948,13.2960391 L11.565948,14.3514532 L14.9419254,14.3514532 L14.9419254,0.994408991 L11.565948,0.994408991 L11.565948,1.82489878 C10.5566352,1.06938376 9.03686533,0.688742609 7.51709544,0.688742609" id="Shape"></path>
                    <polyline id="Shape" points="52.5550762 19.0749243 36.3654665 47.1500931 48.0015672 53.943961 68.2400296 19.0749243"></polyline>
                    <path d="M19.3272156,7.63256005 C19.3272156,5.52173182 21.0152043,3.78577746 23.2078494,3.78577746 C25.2264751,3.78577746 27.0884832,5.52173182 27.0884832,7.63256005 C27.0884832,9.6684135 25.2264751,11.4793426 23.2078494,11.4793426 C21.0152043,11.4793426 19.3272156,9.6684135 19.3272156,7.63256005 M23.0396306,0.688742609 C19.1589968,0.688742609 16.1252577,3.78577746 16.1252577,7.63256005 C16.1252577,11.4793426 19.1589968,14.5014027 23.0396306,14.5014027 C24.5535999,14.5014027 25.905151,14.1207616 27.0884832,13.2960391 L27.0884832,18.9537508 L30.45866,18.9537508 L30.45866,0.994408991 L27.0884832,0.994408991 L27.0884832,1.82489878 C25.905151,1.06938376 24.5535999,0.688742609 23.0396306,0.688742609" id="Shape"></path>
                    <polyline id="Shape" points="22.8733524 34.999265 34.677672 41.6374161 47.6653238 19.0757767 35.3505472 19.0757767 35.3505472 15.7538175 31.9803705 15.7538175 31.9803705 19.0757767"></polyline>
                    <path d="M77.6817388,15.6490935 C76.8348442,15.6490935 75.9937502,16.4046085 75.9937502,17.3100731 C75.9937502,18.2155376 76.8348442,18.9710526 77.6817388,18.9710526 C78.6910517,18.9710526 79.3697275,18.2155376 79.3697275,17.3100731 C79.3697275,16.4046085 78.6910517,15.6490935 77.6817388,15.6490935 M77.6817388,18.740361 C76.8348442,18.740361 76.3301878,18.0655881 76.3301878,17.3100731 C76.3301878,16.554558 76.8348442,15.8740178 77.6817388,15.8740178 C78.5228329,15.8740178 79.0274893,16.554558 79.0274893,17.3100731 C79.0274893,18.0655881 78.5228329,18.740361 77.6817388,18.740361" id="Shape"></path>
                    <path d="M78.0297778,16.3988412 L77.6933401,17.1543562 L77.3569025,17.1543562 L77.3569025,16.3988412 L77.101674,16.3988412 L77.101674,18.2097703 L77.8615589,18.2097703 C78.0297778,18.2097703 78.3662154,17.9790787 78.3662154,17.6791796 C78.3662154,17.3792805 78.1979966,17.229331 78.0297778,17.1543562 L78.3662154,16.3988412 M77.6933401,17.9790787 L77.3569025,17.9790787 L77.3569025,17.3792805 L77.6933401,17.3792805 C78.0297778,17.3792805 78.0297778,17.4542553 78.0297778,17.6791796 C78.0297778,17.8348965 78.0297778,17.9790787 77.6933401,17.9790787" id="Shape"></path>
                    <path d="M55.4072489,7.63256005 C55.4072489,5.52173182 57.0952376,3.78577746 59.2878827,3.78577746 C61.312309,3.78577746 63.1627158,5.52173182 63.1627158,7.63256005 C63.1627158,9.6684135 61.312309,11.4793426 59.2878827,11.4793426 C57.0952376,11.4793426 55.4072489,9.6684135 55.4072489,7.63256005 M59.1138632,0.688742609 C55.2390301,0.688742609 52.2052909,3.78577746 52.2052909,7.63256005 C52.2052909,11.4793426 55.2390301,14.5014027 59.1138632,14.5014027 C60.6336331,14.5014027 61.9851842,14.1207616 63.1627158,13.2960391 L63.1627158,14.3514532 L66.3704744,14.3514532 L66.3704744,0.994408991 L63.1627158,0.994408991 L63.1627158,1.82489878 C61.9851842,1.06938376 60.6336331,0.688742609 59.1138632,0.688742609" id="Shape"></path>
                    <path d="M39.9021156,7.63256005 C39.9021156,5.52173182 41.7583231,3.78577746 43.7827494,3.78577746 C45.9753945,3.78577746 47.6633832,5.52173182 47.6633832,7.63256005 C47.6633832,9.6684135 45.9753945,11.4793426 43.7827494,11.4793426 C41.7583231,11.4793426 39.9021156,9.6684135 39.9021156,7.63256005 L39.9021156,7.63256005 Z M47.6633832,18.9537508 L51.03356,18.9537508 L51.03356,0.994408991 L47.6633832,0.994408991 L47.6633832,1.82489878 C46.6482697,1.06938376 45.2967187,0.688742609 43.7827494,0.688742609 C39.9021156,0.688742609 36.7001577,3.78577746 36.7001577,7.63256005 C36.7001577,11.4793426 39.9021156,14.5014027 43.7827494,14.5014027 C45.2967187,14.5014027 46.6482697,14.1207616 47.6633832,13.2960391 L47.6633832,18.9537508 Z" id="Shape"></path>
                </g>
            </g>
        </g>
    </g>
</svg>